<?xml version="1.0" standalone="no"?>
<!DOCTYPE svg PUBLIC "-//W3C//DTD SVG 20010904//EN"
 "http://www.w3.org/TR/2001/REC-SVG-20010904/DTD/svg10.dtd">
<svg version="1.0" xmlns="http://www.w3.org/2000/svg"
 width="512.000000pt" height="512.000000pt" viewBox="0 0 512.000000 512.000000"
 preserveAspectRatio="xMidYMid meet">
<metadata>
Created by potrace 1.15, written by Peter Selinger 2001-2017
</metadata>
<g transform="translate(0.000000,512.000000) scale(0.100000,-0.100000)"
fill="#000000" stroke="none">
<path d="M2290 3497 l0 -1624 -30 5 c-16 2 -30 8 -30 13 0 5 -13 9 -30 9 -16
0 -30 5 -30 10 0 6 -9 10 -19 10 -10 0 -21 7 -25 15 -3 8 -12 15 -21 15 -8 0
-15 5 -15 10 0 6 -7 10 -15 10 -8 0 -15 5 -15 10 0 6 -7 10 -15 10 -18 0 -65
43 -65 60 0 5 -5 10 -10 10 -14 0 -60 46 -60 60 0 5 -4 10 -10 10 -5 0 -10 9
-10 20 0 11 -6 20 -14 20 -8 0 -20 14 -28 30 -7 17 -16 30 -20 30 -5 0 -8 9
-8 21 0 11 -4 17 -10 14 -6 -4 -10 5 -10 19 0 15 -5 25 -12 24 -7 -2 -14 7
-16 19 -2 13 -8 23 -13 23 -5 0 -9 9 -9 20 0 11 -4 20 -10 20 -5 0 -10 11 -10
25 0 14 -4 25 -10 25 -5 0 -10 11 -10 25 0 16 -6 25 -15 25 -9 0 -15 9 -15 24
0 14 -4 28 -10 31 -5 3 -10 22 -10 41 0 19 -4 34 -10 34 -5 0 -10 15 -10 34 0
19 -6 36 -13 39 -8 3 -14 20 -15 37 0 18 -6 38 -11 43 -6 6 -11 32 -11 58 0
26 -4 51 -10 54 -5 3 -10 40 -10 81 0 43 -4 74 -10 74 -6 0 -10 140 -10 400 0
260 4 400 10 400 6 0 10 30 10 70 0 40 4 70 10 70 6 0 10 25 10 55 0 30 5 55
10 55 6 0 10 11 10 24 0 14 7 31 15 40 8 8 15 28 15 45 0 17 5 31 10 31 6 0
10 11 10 25 0 14 5 25 10 25 6 0 10 8 10 19 0 10 7 24 15 31 8 7 15 21 15 31
0 11 4 19 8 19 5 0 14 16 22 35 8 19 17 35 22 35 4 0 8 7 8 15 0 9 7 18 15 21
8 4 15 13 15 21 0 9 6 13 14 10 10 -4 13 -1 10 8 -3 7 5 26 18 41 43 51 133
134 145 134 7 0 13 5 13 10 0 6 5 10 12 10 6 0 19 7 28 15 27 24 113 65 123
58 6 -3 7 -1 3 6 -5 7 3 22 18 36 23 21 26 32 26 95 0 41 -4 70 -10 70 -6 0
-16 11 -22 25 -6 14 -17 25 -25 25 -7 0 -13 5 -13 10 0 6 -26 10 -59 10 -33 0
-63 -4 -66 -10 -3 -5 -24 -10 -46 -10 -21 0 -39 -4 -39 -10 0 -5 -15 -10 -34
-10 -21 0 -36 -6 -40 -15 -3 -8 -15 -15 -26 -15 -11 0 -20 -4 -20 -10 0 -5
-11 -10 -25 -10 -14 0 -25 -4 -25 -10 0 -5 -13 -10 -30 -10 -16 0 -30 -4 -30
-10 0 -5 -6 -10 -14 -10 -8 0 -16 -7 -20 -15 -3 -8 -12 -15 -21 -15 -8 0 -15
-4 -15 -10 0 -5 -9 -10 -20 -10 -11 0 -20 -4 -20 -10 0 -5 -5 -10 -10 -10 -10
0 -22 -8 -55 -37 -7 -7 -16 -13 -19 -13 -13 0 -193 -173 -221 -212 -24 -35
-35 -35 -35 -3 0 14 -4 25 -10 25 -5 0 -10 9 -10 19 0 11 -11 32 -25 47 -14
15 -25 33 -25 40 0 8 -4 14 -10 14 -5 0 -10 4 -10 10 0 5 -9 20 -19 32 -11 13
-29 34 -40 47 -11 13 -18 27 -15 32 3 5 -2 6 -10 3 -9 -3 -16 -1 -16 5 0 6 -7
11 -15 11 -8 0 -15 5 -15 10 0 6 -6 10 -14 10 -8 0 -16 7 -20 15 -3 8 -12 15
-21 15 -8 0 -15 5 -15 10 0 6 -9 10 -20 10 -11 0 -20 5 -20 10 0 6 -9 10 -19
10 -11 0 -22 4 -26 9 -3 5 -19 12 -35 16 -17 4 -28 11 -24 16 3 5 -17 9 -46 9
-32 0 -49 4 -45 10 4 6 -45 10 -140 10 -95 0 -144 -4 -140 -10 4 -6 -22 -10
-70 -10 -42 0 -74 -4 -71 -9 9 -13 -19 -21 -76 -21 -66 0 -78 -13 -78 -92 0
-78 10 -86 115 -95 42 -3 78 -10 81 -14 3 -5 15 -9 27 -9 28 -1 117 -90 117
-119 0 -11 5 -21 10 -21 6 0 10 -11 10 -24 0 -13 7 -26 15 -30 8 -3 15 -14 15
-25 0 -11 5 -23 10 -26 6 -3 10 -26 10 -51 0 -24 5 -44 10 -44 6 0 10 -22 10
-50 0 -27 5 -50 10 -50 6 0 10 -29 10 -66 0 -37 4 -63 9 -59 14 8 20 -21 20
-94 0 -36 5 -69 11 -75 5 -5 10 -45 10 -87 0 -43 5 -81 10 -84 6 -3 10 -44 10
-91 0 -49 4 -84 10 -84 6 0 10 -33 10 -77 1 -53 5 -84 15 -97 10 -13 15 -44
15 -93 0 -42 4 -73 10 -73 6 0 10 -30 10 -71 0 -44 4 -68 10 -64 6 4 10 -22
10 -70 0 -42 4 -74 9 -71 12 8 21 -18 21 -59 0 -19 5 -37 10 -40 6 -3 10 -26
10 -51 0 -24 5 -44 10 -44 6 0 10 -22 10 -50 0 -27 5 -50 10 -50 6 0 10 -16
10 -35 0 -23 4 -34 13 -33 7 2 13 -10 15 -29 2 -18 7 -33 13 -33 5 0 9 -13 9
-30 0 -16 5 -30 10 -30 6 0 10 -11 10 -25 0 -14 3 -25 8 -25 10 0 42 -58 42
-76 0 -8 5 -14 10 -14 6 0 10 -11 10 -25 0 -14 5 -25 10 -25 6 0 10 -6 10 -14
0 -8 7 -16 15 -20 8 -3 15 -12 15 -21 0 -8 5 -15 10 -15 6 0 10 -7 10 -15 0
-8 5 -15 10 -15 6 0 10 -7 10 -15 0 -7 8 -19 17 -24 10 -6 14 -11 10 -11 -14
0 112 -149 176 -209 16 -14 49 -45 74 -68 26 -24 61 -53 79 -65 19 -13 34 -26
34 -30 0 -5 7 -8 16 -8 10 0 14 -6 11 -14 -4 -9 0 -12 13 -9 19 5 62 -25 54
-39 -3 -4 1 -8 8 -8 19 0 102 -43 111 -57 4 -7 17 -13 27 -13 10 0 22 -4 25
-10 3 -5 15 -10 26 -10 10 0 19 -4 19 -9 0 -4 25 -16 55 -26 30 -9 55 -21 55
-26 0 -5 15 -9 34 -9 19 0 38 -4 41 -10 3 -5 22 -10 41 -10 19 0 34 -4 34 -10
0 -5 15 -10 34 -10 18 0 47 -7 62 -15 16 -8 45 -15 65 -15 19 0 47 -6 62 -12
l27 -13 0 -722 c0 -398 3 -723 8 -723 73 -5 443 -1 451 4 8 5 11 205 11 724
l0 717 27 13 c15 6 45 12 68 12 23 0 50 7 61 15 10 8 38 15 62 15 23 0 42 5
42 10 0 6 16 10 35 10 19 0 35 5 35 10 0 6 15 10 34 10 21 0 36 6 40 15 3 8
14 15 25 15 11 0 23 5 26 10 3 6 17 10 31 10 13 0 24 5 24 10 0 6 11 10 25 10
14 0 25 5 25 10 0 6 9 10 19 10 10 0 21 7 25 15 3 8 12 15 21 15 8 0 15 5 15
10 0 6 9 10 20 10 11 0 20 4 20 8 0 5 16 17 35 28 19 10 35 22 35 26 0 5 4 8
10 8 29 0 380 341 380 370 0 5 5 10 10 10 6 0 10 4 10 9 0 6 10 21 23 35 12
13 29 37 37 53 8 15 20 33 25 40 6 7 16 19 23 27 6 8 12 22 12 31 0 8 5 15 10
15 6 0 10 9 10 20 0 11 4 20 9 20 5 0 11 10 13 23 2 12 9 21 16 19 7 -1 12 9
12 23 0 14 5 25 10 25 6 0 10 14 10 30 0 17 5 30 10 30 6 0 10 13 10 29 0 17
5 33 10 36 6 3 10 15 10 25 0 10 7 25 15 34 8 8 15 31 15 51 0 22 4 34 10 30
6 -4 10 13 10 44 0 28 4 51 9 51 6 0 11 21 13 48 2 31 7 46 16 44 8 -1 12 15
12 59 0 37 4 58 10 54 6 -4 10 22 10 69 0 44 4 76 10 76 6 0 10 28 10 65 0 37
4 65 10 65 6 0 10 35 10 84 0 62 4 89 15 100 11 11 15 38 15 105 0 54 4 91 10
91 6 0 10 37 10 90 0 53 4 90 10 90 6 0 10 33 10 79 0 58 4 82 15 91 10 9 15
32 15 76 0 36 4 64 10 64 6 0 10 23 10 50 0 28 5 50 10 50 6 0 10 22 10 49 0
28 5 53 10 56 6 3 10 14 10 24 0 10 7 24 15 31 8 7 15 21 15 31 0 11 5 19 10
19 6 0 10 11 10 25 0 14 5 25 10 25 6 0 10 7 10 16 0 25 91 113 117 114 12 0
24 4 27 9 3 4 37 11 77 14 39 3 77 11 85 18 10 8 14 34 14 84 0 81 -3 85 -70
85 -46 0 -72 9 -64 21 3 5 -26 9 -65 9 -41 0 -71 4 -71 10 0 6 -57 10 -150 10
-93 0 -150 -4 -150 -10 0 -5 -21 -10 -46 -10 -27 0 -51 -6 -60 -15 -9 -8 -26
-15 -40 -15 -13 0 -24 -4 -24 -10 0 -5 -11 -10 -25 -10 -14 0 -25 -5 -25 -11
0 -6 -9 -9 -19 -6 -14 3 -18 1 -14 -9 3 -8 -1 -14 -9 -14 -7 0 -26 -11 -41
-26 -15 -14 -32 -22 -37 -19 -6 3 -10 -1 -10 -10 0 -9 -10 -27 -22 -40 -13
-14 -33 -36 -45 -50 -13 -13 -23 -31 -23 -40 0 -8 -4 -15 -10 -15 -5 0 -10 -9
-10 -20 0 -11 -7 -23 -15 -26 -8 -4 -15 -17 -15 -30 0 -13 -4 -24 -10 -24 -5
0 -10 -12 -10 -27 0 -24 -8 -19 -83 58 -95 96 -133 129 -147 129 -6 0 -10 5
-10 10 0 6 -5 10 -10 10 -6 0 -21 11 -34 25 -13 14 -31 25 -41 25 -10 0 -15 5
-12 13 4 10 -2 13 -19 9 -14 -2 -24 0 -24 7 0 6 -7 11 -15 11 -9 0 -18 7 -21
15 -4 8 -15 15 -25 15 -10 0 -19 5 -19 10 0 6 -11 10 -25 10 -14 0 -25 5 -25
10 0 6 -11 10 -25 10 -14 0 -25 5 -25 10 0 6 -11 10 -24 10 -14 0 -31 7 -40
15 -8 8 -29 15 -46 15 -18 0 -29 4 -25 10 4 6 -10 10 -34 10 -22 0 -43 5 -46
10 -3 6 -23 10 -44 10 -22 0 -44 6 -51 15 -9 11 -32 15 -82 15 -40 0 -67 4
-63 9 3 6 -92 10 -245 11 l-250 1 0 -1624z m523 1313 c9 0 19 -4 22 -10 3 -5
17 -10 31 -10 13 0 24 -4 24 -10 0 -5 10 -10 22 -10 11 0 36 -11 54 -25 18
-14 37 -25 43 -25 6 0 11 -4 11 -10 0 -5 6 -10 13 -10 7 0 50 -39 96 -86 58
-60 81 -91 78 -104 -3 -13 0 -17 9 -13 8 3 14 0 14 -7 0 -6 6 -18 13 -25 31
-35 37 -45 37 -60 0 -8 5 -15 10 -15 6 0 10 -11 10 -25 0 -14 5 -25 10 -25 6
0 10 -9 10 -19 0 -10 7 -21 15 -25 8 -3 15 -17 15 -31 0 -14 5 -25 10 -25 6 0
10 -13 10 -30 0 -16 5 -30 10 -30 6 0 10 -16 10 -35 0 -19 5 -35 10 -35 6 0
10 -18 10 -39 0 -24 5 -41 14 -44 8 -3 14 -20 14 -42 0 -19 4 -41 10 -48 5 -6
10 -39 11 -72 1 -33 6 -61 12 -63 5 -2 9 -48 9 -102 0 -66 4 -100 12 -102 17
-6 17 -600 0 -606 -8 -2 -12 -36 -12 -102 0 -55 -4 -102 -10 -105 -6 -3 -10
-30 -10 -60 0 -30 -4 -57 -10 -60 -5 -3 -10 -19 -10 -35 0 -36 -10 -61 -21
-54 -5 3 -9 -13 -9 -36 0 -25 -4 -39 -10 -35 -6 4 -10 -8 -10 -29 0 -19 -5
-36 -10 -38 -6 -2 -12 -13 -13 -26 0 -12 -4 -22 -8 -22 -4 0 -9 -10 -11 -22
-2 -13 -9 -22 -16 -20 -7 1 -12 -9 -12 -23 0 -14 -4 -25 -10 -25 -5 0 -10 -9
-10 -20 0 -11 -4 -20 -10 -20 -5 0 -10 -7 -10 -15 0 -7 -8 -19 -17 -24 -10 -6
-13 -11 -8 -11 6 0 -1 -10 -15 -23 -14 -12 -33 -36 -42 -52 -10 -17 -22 -29
-28 -27 -5 1 -9 -2 -8 -6 4 -10 -48 -62 -62 -62 -5 0 -10 -6 -10 -14 0 -8 -13
-20 -30 -28 -16 -7 -30 -16 -30 -20 0 -5 -9 -8 -19 -8 -10 0 -22 -7 -25 -16
-3 -9 -13 -14 -20 -11 -8 3 -17 -1 -20 -9 -3 -8 -12 -14 -21 -14 -8 0 -15 -4
-15 -10 0 -5 -18 -10 -41 -10 -24 0 -38 -4 -34 -10 4 -6 -8 -10 -29 -10 -19 0
-37 -6 -39 -12 -3 -7 -6 659 -6 1481 -1 1447 0 1494 17 1478 10 -10 26 -17 35
-17z"/>
</g>
</svg>
